<mxfile host="65bd71144e">
    <diagram id="HJxNXuhrgSFgWg1yIh3-" name="Page-1">
        <mxGraphModel dx="405" dy="264" grid="1" gridSize="10" guides="1" tooltips="1" connect="1" arrows="1" fold="1" page="1" pageScale="1" pageWidth="850" pageHeight="1100" background="none" math="0" shadow="0">
            <root>
                <mxCell id="0"/>
                <mxCell id="1" parent="0"/>
                <mxCell id="243" value="" style="rounded=0;whiteSpace=wrap;html=1;labelBackgroundColor=none;labelBorderColor=none;fontSize=10;fontColor=#070e06;" parent="1" vertex="1">
                    <mxGeometry x="70" y="30" width="760" height="520" as="geometry"/>
                </mxCell>
                <mxCell id="244" value="Frontend" style="shape=module;align=left;spacingLeft=20;align=center;verticalAlign=top;labelBackgroundColor=none;fontColor=default;labelBorderColor=none;" parent="1" vertex="1">
                    <mxGeometry x="80" y="60" width="390" height="380" as="geometry"/>
                </mxCell>
                <mxCell id="245" value="Backend" style="shape=module;align=left;spacingLeft=20;align=center;verticalAlign=top;labelBorderColor=none;" parent="1" vertex="1">
                    <mxGeometry x="520" y="60" width="300" height="380" as="geometry"/>
                </mxCell>
                <mxCell id="246" value="Jenkins" style="shape=module;align=left;spacingLeft=20;align=center;verticalAlign=top;" parent="1" vertex="1">
                    <mxGeometry x="540" y="480" width="110" height="60" as="geometry"/>
                </mxCell>
                <mxCell id="247" value="Login" style="shape=module;align=left;spacingLeft=20;align=center;verticalAlign=top;" parent="1" vertex="1">
                    <mxGeometry x="110" y="360" width="100" height="50" as="geometry"/>
                </mxCell>
                <mxCell id="248" value="TestHosts" style="shape=module;align=left;spacingLeft=20;align=center;verticalAlign=top;" parent="1" vertex="1">
                    <mxGeometry x="110" y="240" width="100" height="50" as="geometry"/>
                </mxCell>
                <mxCell id="249" value="Test" style="shape=module;align=left;spacingLeft=20;align=center;verticalAlign=top;" parent="1" vertex="1">
                    <mxGeometry x="110" y="80" width="100" height="90" as="geometry"/>
                </mxCell>
                <mxCell id="250" value="HTTP-Client" style="shape=module;align=left;spacingLeft=20;align=center;verticalAlign=top;fontSize=10;" parent="1" vertex="1">
                    <mxGeometry x="300" y="160" width="100" height="90" as="geometry"/>
                </mxCell>
                <mxCell id="251" value="port 3000" style="fontStyle=0;labelPosition=right;verticalLabelPosition=middle;align=left;verticalAlign=middle;spacingLeft=2;" parent="1" vertex="1">
                    <mxGeometry x="510" y="130" width="30" height="290" as="geometry"/>
                </mxCell>
                <mxCell id="253" value="Icon Zurück" style="endArrow=block;startArrow=none;endFill=0;startFill=0;endSize=8;html=1;verticalAlign=bottom;dashed=1;labelBackgroundColor=none;exitX=0.25;exitY=1;exitDx=0;exitDy=0;entryX=0.25;entryY=0;entryDx=0;entryDy=0;" parent="1" source="248" target="247" edge="1">
                    <mxGeometry width="160" relative="1" as="geometry">
                        <mxPoint x="270" y="320" as="sourcePoint"/>
                        <mxPoint x="430" y="320" as="targetPoint"/>
                    </mxGeometry>
                </mxCell>
                <mxCell id="255" value="Icon Zurück" style="endArrow=block;startArrow=none;endFill=0;startFill=0;endSize=8;html=1;verticalAlign=bottom;dashed=1;labelBackgroundColor=none;exitX=0.25;exitY=1;exitDx=0;exitDy=0;entryX=0.25;entryY=0;entryDx=0;entryDy=0;" parent="1" source="249" target="248" edge="1">
                    <mxGeometry width="160" relative="1" as="geometry">
                        <mxPoint x="240" y="300" as="sourcePoint"/>
                        <mxPoint x="400" y="300" as="targetPoint"/>
                        <mxPoint as="offset"/>
                    </mxGeometry>
                </mxCell>
                <mxCell id="256" value="" style="rounded=0;orthogonalLoop=1;jettySize=auto;html=1;endArrow=none;endFill=0;sketch=0;sourcePerimeterSpacing=0;targetPerimeterSpacing=0;exitX=0.25;exitY=0;exitDx=0;exitDy=0;" parent="1" source="250" target="258" edge="1">
                    <mxGeometry relative="1" as="geometry">
                        <mxPoint x="260" y="135" as="sourcePoint"/>
                    </mxGeometry>
                </mxCell>
                <mxCell id="257" value="getValues" style="rounded=0;orthogonalLoop=1;jettySize=auto;html=1;endArrow=halfCircle;endFill=0;entryX=0.5;entryY=0.5;endSize=6;strokeWidth=1;sketch=0;" parent="1" target="258" edge="1">
                    <mxGeometry relative="1" as="geometry">
                        <mxPoint x="210" y="135" as="sourcePoint"/>
                    </mxGeometry>
                </mxCell>
                <mxCell id="258" value="" style="ellipse;whiteSpace=wrap;html=1;align=center;aspect=fixed;resizable=0;points=[];outlineConnect=0;sketch=0;" parent="1" vertex="1">
                    <mxGeometry x="300" y="130" width="10" height="10" as="geometry"/>
                </mxCell>
                <mxCell id="259" value="sendEmail" style="rounded=0;orthogonalLoop=1;jettySize=auto;html=1;endArrow=none;endFill=0;sketch=0;sourcePerimeterSpacing=0;targetPerimeterSpacing=0;exitX=1;exitY=0.9;exitDx=0;exitDy=0;exitPerimeter=0;" parent="1" source="249" target="261" edge="1">
                    <mxGeometry relative="1" as="geometry">
                        <mxPoint x="230" y="175" as="sourcePoint"/>
                    </mxGeometry>
                </mxCell>
                <mxCell id="260" value="" style="rounded=0;orthogonalLoop=1;jettySize=auto;html=1;endArrow=halfCircle;endFill=0;entryX=0.5;entryY=0.5;endSize=6;strokeWidth=1;sketch=0;exitX=0.093;exitY=0.11;exitDx=0;exitDy=0;exitPerimeter=0;" parent="1" source="250" target="261" edge="1">
                    <mxGeometry relative="1" as="geometry">
                        <mxPoint x="270" y="175" as="sourcePoint"/>
                    </mxGeometry>
                </mxCell>
                <mxCell id="261" value="" style="ellipse;whiteSpace=wrap;html=1;align=center;aspect=fixed;resizable=0;points=[];outlineConnect=0;sketch=0;" parent="1" vertex="1">
                    <mxGeometry x="280" y="160" width="10" height="10" as="geometry"/>
                </mxCell>
                <mxCell id="262" value="" style="rounded=0;orthogonalLoop=1;jettySize=auto;html=1;endArrow=none;endFill=0;sketch=0;sourcePerimeterSpacing=0;targetPerimeterSpacing=0;exitX=1.017;exitY=0.137;exitDx=0;exitDy=0;exitPerimeter=0;align=center;verticalAlign=middle;" parent="1" source="249" target="265" edge="1">
                    <mxGeometry relative="1" as="geometry">
                        <mxPoint x="330" y="125" as="sourcePoint"/>
                    </mxGeometry>
                </mxCell>
                <mxCell id="263" value="updateValue" style="edgeLabel;html=1;align=center;verticalAlign=middle;resizable=0;points=[];" parent="262" vertex="1" connectable="0">
                    <mxGeometry x="-0.2754" y="1" relative="1" as="geometry">
                        <mxPoint as="offset"/>
                    </mxGeometry>
                </mxCell>
                <mxCell id="264" value="" style="rounded=0;orthogonalLoop=1;jettySize=auto;html=1;endArrow=halfCircle;endFill=0;entryX=0.5;entryY=0.5;endSize=6;strokeWidth=1;sketch=0;exitX=0.64;exitY=-0.04;exitDx=0;exitDy=0;exitPerimeter=0;" parent="1" source="250" target="265" edge="1">
                    <mxGeometry relative="1" as="geometry">
                        <mxPoint x="370" y="125" as="sourcePoint"/>
                    </mxGeometry>
                </mxCell>
                <mxCell id="265" value="" style="ellipse;whiteSpace=wrap;html=1;align=center;aspect=fixed;resizable=0;points=[];outlineConnect=0;sketch=0;" parent="1" vertex="1">
                    <mxGeometry x="330" y="90" width="10" height="10" as="geometry"/>
                </mxCell>
                <mxCell id="266" value="" style="rounded=0;orthogonalLoop=1;jettySize=auto;html=1;endArrow=none;endFill=0;sketch=0;sourcePerimeterSpacing=0;targetPerimeterSpacing=0;exitX=0;exitY=1;exitDx=10;exitDy=0;exitPerimeter=0;" parent="1" source="250" target="268" edge="1">
                    <mxGeometry relative="1" as="geometry">
                        <mxPoint x="240" y="245" as="sourcePoint"/>
                    </mxGeometry>
                </mxCell>
                <mxCell id="267" value="getValues" style="rounded=0;orthogonalLoop=1;jettySize=auto;html=1;endArrow=halfCircle;endFill=0;entryX=0.5;entryY=0.5;endSize=6;strokeWidth=1;sketch=0;" parent="1" target="268" edge="1">
                    <mxGeometry relative="1" as="geometry">
                        <mxPoint x="210" y="255" as="sourcePoint"/>
                    </mxGeometry>
                </mxCell>
                <mxCell id="268" value="" style="ellipse;whiteSpace=wrap;html=1;align=center;aspect=fixed;resizable=0;points=[];outlineConnect=0;sketch=0;" parent="1" vertex="1">
                    <mxGeometry x="280" y="250" width="10" height="10" as="geometry"/>
                </mxCell>
                <mxCell id="269" value="delete" style="rounded=0;orthogonalLoop=1;jettySize=auto;html=1;endArrow=none;endFill=0;sketch=0;sourcePerimeterSpacing=0;targetPerimeterSpacing=0;exitX=1;exitY=0.75;exitDx=0;exitDy=0;" parent="1" source="248" target="271" edge="1">
                    <mxGeometry relative="1" as="geometry">
                        <mxPoint x="265" y="325" as="sourcePoint"/>
                    </mxGeometry>
                </mxCell>
                <mxCell id="270" value="" style="rounded=0;orthogonalLoop=1;jettySize=auto;html=1;endArrow=halfCircle;endFill=0;entryX=0.5;entryY=0.5;endSize=6;strokeWidth=1;sketch=0;exitX=0.6;exitY=1;exitDx=0;exitDy=0;exitPerimeter=0;" parent="1" source="250" target="271" edge="1">
                    <mxGeometry relative="1" as="geometry">
                        <mxPoint x="305" y="325" as="sourcePoint"/>
                    </mxGeometry>
                </mxCell>
                <mxCell id="271" value="" style="ellipse;whiteSpace=wrap;html=1;align=center;aspect=fixed;resizable=0;points=[];outlineConnect=0;sketch=0;" parent="1" vertex="1">
                    <mxGeometry x="320" y="270" width="10" height="10" as="geometry"/>
                </mxCell>
                <mxCell id="272" value="HTTP-Server" style="shape=module;align=left;spacingLeft=20;align=center;verticalAlign=top;fontColor=default;" parent="1" vertex="1">
                    <mxGeometry x="595" y="160" width="205" height="90" as="geometry"/>
                </mxCell>
                <mxCell id="273" value="" style="rounded=0;orthogonalLoop=1;jettySize=auto;html=1;endArrow=none;endFill=0;sketch=0;sourcePerimeterSpacing=0;targetPerimeterSpacing=0;exitX=1.003;exitY=0.83;exitDx=0;exitDy=0;exitPerimeter=0;" parent="1" source="250" target="276" edge="1">
                    <mxGeometry relative="1" as="geometry">
                        <mxPoint x="400" y="230" as="sourcePoint"/>
                    </mxGeometry>
                </mxCell>
                <mxCell id="274" value="" style="rounded=0;orthogonalLoop=1;jettySize=auto;html=1;endArrow=halfCircle;endFill=0;entryX=0.5;entryY=0.5;endSize=6;strokeWidth=1;sketch=0;exitX=0.052;exitY=0.838;exitDx=0;exitDy=0;exitPerimeter=0;" parent="1" source="272" target="276" edge="1">
                    <mxGeometry relative="1" as="geometry">
                        <mxPoint x="600" y="225" as="sourcePoint"/>
                    </mxGeometry>
                </mxCell>
                <mxCell id="275" value="delete" style="edgeLabel;html=1;align=center;verticalAlign=middle;resizable=0;points=[];" parent="274" vertex="1" connectable="0">
                    <mxGeometry x="-0.2933" y="1" relative="1" as="geometry">
                        <mxPoint as="offset"/>
                    </mxGeometry>
                </mxCell>
                <mxCell id="276" value="" style="ellipse;whiteSpace=wrap;html=1;align=center;aspect=fixed;resizable=0;points=[];outlineConnect=0;sketch=0;" parent="1" vertex="1">
                    <mxGeometry x="490" y="230" width="10" height="10" as="geometry"/>
                </mxCell>
                <mxCell id="277" value="" style="rounded=0;orthogonalLoop=1;jettySize=auto;html=1;endArrow=none;endFill=0;sketch=0;sourcePerimeterSpacing=0;targetPerimeterSpacing=0;exitX=0.05;exitY=0.721;exitDx=0;exitDy=0;exitPerimeter=0;" parent="1" source="272" target="279" edge="1">
                    <mxGeometry relative="1" as="geometry">
                        <mxPoint x="430" y="205" as="sourcePoint"/>
                    </mxGeometry>
                </mxCell>
                <mxCell id="278" value="getValues" style="rounded=0;orthogonalLoop=1;jettySize=auto;html=1;endArrow=halfCircle;endFill=0;entryX=0.5;entryY=0.5;endSize=6;strokeWidth=1;sketch=0;" parent="1" target="279" edge="1">
                    <mxGeometry relative="1" as="geometry">
                        <mxPoint x="400" y="225" as="sourcePoint"/>
                    </mxGeometry>
                </mxCell>
                <mxCell id="279" value="" style="ellipse;whiteSpace=wrap;html=1;align=center;aspect=fixed;resizable=0;points=[];outlineConnect=0;sketch=0;" parent="1" vertex="1">
                    <mxGeometry x="470" y="220" width="10" height="10" as="geometry"/>
                </mxCell>
                <mxCell id="280" value="" style="rounded=0;orthogonalLoop=1;jettySize=auto;html=1;endArrow=none;endFill=0;sketch=0;sourcePerimeterSpacing=0;targetPerimeterSpacing=0;exitX=1.007;exitY=0.537;exitDx=0;exitDy=0;exitPerimeter=0;" parent="1" source="250" target="283" edge="1">
                    <mxGeometry relative="1" as="geometry">
                        <mxPoint x="450" y="185" as="sourcePoint"/>
                    </mxGeometry>
                </mxCell>
                <mxCell id="281" value="&lt;span style=&quot;&quot;&gt;sendEmail&lt;/span&gt;" style="edgeLabel;html=1;align=right;verticalAlign=middle;resizable=0;points=[];" parent="280" vertex="1" connectable="0">
                    <mxGeometry x="0.3577" relative="1" as="geometry">
                        <mxPoint as="offset"/>
                    </mxGeometry>
                </mxCell>
                <mxCell id="282" value="" style="rounded=0;orthogonalLoop=1;jettySize=auto;html=1;endArrow=halfCircle;endFill=0;entryX=0.5;entryY=0.5;endSize=6;strokeWidth=1;sketch=0;verticalAlign=middle;align=center;exitX=0.05;exitY=0.567;exitDx=0;exitDy=0;exitPerimeter=0;" parent="1" source="272" target="283" edge="1">
                    <mxGeometry relative="1" as="geometry">
                        <mxPoint x="600" y="195" as="sourcePoint"/>
                    </mxGeometry>
                </mxCell>
                <mxCell id="283" value="" style="ellipse;whiteSpace=wrap;html=1;align=center;aspect=fixed;resizable=0;points=[];outlineConnect=0;sketch=0;verticalAlign=middle;" parent="1" vertex="1">
                    <mxGeometry x="490" y="205" width="10" height="10" as="geometry"/>
                </mxCell>
                <mxCell id="284" value="" style="rounded=0;orthogonalLoop=1;jettySize=auto;html=1;endArrow=none;endFill=0;sketch=0;sourcePerimeterSpacing=0;targetPerimeterSpacing=0;exitX=1.003;exitY=0.048;exitDx=0;exitDy=0;exitPerimeter=0;" parent="1" source="250" target="287" edge="1">
                    <mxGeometry relative="1" as="geometry">
                        <mxPoint x="425" y="175" as="sourcePoint"/>
                    </mxGeometry>
                </mxCell>
                <mxCell id="285" value="&lt;div style=&quot;&quot;&gt;updateValue&lt;/div&gt;" style="edgeLabel;html=1;align=center;verticalAlign=middle;resizable=0;points=[];" parent="284" vertex="1" connectable="0">
                    <mxGeometry x="0.1995" y="-1" relative="1" as="geometry">
                        <mxPoint as="offset"/>
                    </mxGeometry>
                </mxCell>
                <mxCell id="286" value="" style="rounded=0;orthogonalLoop=1;jettySize=auto;html=1;endArrow=halfCircle;endFill=0;entryX=0.5;entryY=0.5;endSize=6;strokeWidth=1;sketch=0;exitX=0.049;exitY=0.059;exitDx=0;exitDy=0;exitPerimeter=0;" parent="1" source="272" target="287" edge="1">
                    <mxGeometry relative="1" as="geometry">
                        <mxPoint x="465" y="175" as="sourcePoint"/>
                    </mxGeometry>
                </mxCell>
                <mxCell id="287" value="" style="ellipse;whiteSpace=wrap;html=1;align=center;aspect=fixed;resizable=0;points=[];outlineConnect=0;sketch=0;" parent="1" vertex="1">
                    <mxGeometry x="490" y="160" width="10" height="10" as="geometry"/>
                </mxCell>
                <mxCell id="289" value="" style="rounded=0;orthogonalLoop=1;jettySize=auto;html=1;endArrow=none;endFill=0;sketch=0;sourcePerimeterSpacing=0;targetPerimeterSpacing=0;fontSize=10;exitX=1;exitY=0.938;exitDx=0;exitDy=0;exitPerimeter=0;" parent="1" source="250" target="292" edge="1">
                    <mxGeometry relative="1" as="geometry">
                        <mxPoint x="425" y="245" as="sourcePoint"/>
                    </mxGeometry>
                </mxCell>
                <mxCell id="290" value="protocol" style="edgeLabel;html=1;align=center;verticalAlign=middle;resizable=0;points=[];fontSize=10;" parent="289" vertex="1" connectable="0">
                    <mxGeometry x="0.1666" y="-2" relative="1" as="geometry">
                        <mxPoint as="offset"/>
                    </mxGeometry>
                </mxCell>
                <mxCell id="291" value="" style="rounded=0;orthogonalLoop=1;jettySize=auto;html=1;endArrow=halfCircle;endFill=0;entryX=0.5;entryY=0.5;endSize=6;strokeWidth=1;sketch=0;fontSize=10;exitX=0.05;exitY=0.95;exitDx=0;exitDy=0;exitPerimeter=0;labelBorderColor=default;labelBackgroundColor=default;fontColor=#070e06;" parent="1" source="272" target="292" edge="1">
                    <mxGeometry relative="1" as="geometry">
                        <mxPoint x="465" y="245" as="sourcePoint"/>
                    </mxGeometry>
                </mxCell>
                <mxCell id="292" value="" style="ellipse;whiteSpace=wrap;html=1;align=center;aspect=fixed;resizable=0;points=[];outlineConnect=0;sketch=0;fontSize=10;" parent="1" vertex="1">
                    <mxGeometry x="450" y="240" width="10" height="10" as="geometry"/>
                </mxCell>
                <mxCell id="293" value="" style="rounded=0;orthogonalLoop=1;jettySize=auto;html=1;endArrow=none;endFill=0;sketch=0;sourcePerimeterSpacing=0;targetPerimeterSpacing=0;fontSize=10;" parent="1" target="295" edge="1">
                    <mxGeometry relative="1" as="geometry">
                        <mxPoint x="610" y="250" as="sourcePoint"/>
                        <Array as="points">
                            <mxPoint x="610" y="290"/>
                        </Array>
                    </mxGeometry>
                </mxCell>
                <mxCell id="294" value="callback" style="rounded=0;orthogonalLoop=1;jettySize=auto;html=1;endArrow=halfCircle;endFill=0;entryX=0.5;entryY=0.5;endSize=6;strokeWidth=1;sketch=0;fontSize=10;exitX=0.079;exitY=0.483;exitDx=0;exitDy=0;exitPerimeter=0;" parent="1" source="246" target="295" edge="1">
                    <mxGeometry x="-0.4099" y="-5" relative="1" as="geometry">
                        <mxPoint x="495" y="520" as="sourcePoint"/>
                        <Array as="points">
                            <mxPoint x="485" y="510"/>
                        </Array>
                        <mxPoint as="offset"/>
                    </mxGeometry>
                </mxCell>
                <mxCell id="295" value="" style="ellipse;whiteSpace=wrap;html=1;align=center;aspect=fixed;resizable=0;points=[];outlineConnect=0;sketch=0;fontSize=10;" parent="1" vertex="1">
                    <mxGeometry x="480" y="285" width="10" height="10" as="geometry"/>
                </mxCell>
                <mxCell id="296" value="" style="rounded=0;orthogonalLoop=1;jettySize=auto;html=1;endArrow=none;endFill=0;sketch=0;sourcePerimeterSpacing=0;targetPerimeterSpacing=0;fontSize=10;exitX=0.324;exitY=-0.017;exitDx=0;exitDy=0;exitPerimeter=0;" parent="1" source="246" target="299" edge="1">
                    <mxGeometry relative="1" as="geometry">
                        <mxPoint x="580" y="465" as="sourcePoint"/>
                    </mxGeometry>
                </mxCell>
                <mxCell id="297" value="" style="rounded=0;orthogonalLoop=1;jettySize=auto;html=1;endArrow=halfCircle;endFill=0;entryX=0.5;entryY=0.5;endSize=6;strokeWidth=1;sketch=0;fontSize=10;align=center;verticalAlign=middle;exitX=0.122;exitY=1;exitDx=0;exitDy=0;exitPerimeter=0;" parent="1" source="272" target="299" edge="1">
                    <mxGeometry relative="1" as="geometry">
                        <mxPoint x="560" y="410" as="sourcePoint"/>
                        <Array as="points">
                            <mxPoint x="620" y="410"/>
                            <mxPoint x="500" y="410"/>
                            <mxPoint x="500" y="455"/>
                        </Array>
                    </mxGeometry>
                </mxCell>
                <mxCell id="298" value="jenkins" style="edgeLabel;html=1;align=center;verticalAlign=middle;resizable=0;points=[];fontSize=10;" parent="297" vertex="1" connectable="0">
                    <mxGeometry x="-0.3334" y="1" relative="1" as="geometry">
                        <mxPoint x="-26" y="27" as="offset"/>
                    </mxGeometry>
                </mxCell>
                <mxCell id="299" value="" style="ellipse;whiteSpace=wrap;html=1;align=center;aspect=fixed;resizable=0;points=[];outlineConnect=0;sketch=0;fontSize=10;" parent="1" vertex="1">
                    <mxGeometry x="570" y="450" width="10" height="10" as="geometry"/>
                </mxCell>
                <mxCell id="300" value="Datenbank" style="shape=module;align=left;spacingLeft=20;align=center;verticalAlign=top;fontSize=10;" parent="1" vertex="1">
                    <mxGeometry x="720" y="370" width="90" height="50" as="geometry"/>
                </mxCell>
                <mxCell id="304" value="" style="rounded=0;orthogonalLoop=1;jettySize=auto;html=1;endArrow=none;endFill=0;sketch=0;sourcePerimeterSpacing=0;targetPerimeterSpacing=0;fontSize=10;exitX=0.872;exitY=1.014;exitDx=0;exitDy=0;exitPerimeter=0;" parent="1" source="272" target="307" edge="1">
                    <mxGeometry relative="1" as="geometry">
                        <mxPoint x="770" y="325" as="sourcePoint"/>
                    </mxGeometry>
                </mxCell>
                <mxCell id="305" value="delete" style="edgeLabel;html=1;align=center;verticalAlign=middle;resizable=0;points=[];fontSize=10;" parent="304" vertex="1" connectable="0">
                    <mxGeometry x="0.4451" y="1" relative="1" as="geometry">
                        <mxPoint as="offset"/>
                    </mxGeometry>
                </mxCell>
                <mxCell id="306" value="" style="rounded=0;orthogonalLoop=1;jettySize=auto;html=1;endArrow=halfCircle;endFill=0;entryX=0.5;entryY=0.5;endSize=6;strokeWidth=1;sketch=0;fontSize=10;exitX=0.624;exitY=0.025;exitDx=0;exitDy=0;exitPerimeter=0;" parent="1" source="300" target="307" edge="1">
                    <mxGeometry relative="1" as="geometry">
                        <mxPoint x="810" y="325" as="sourcePoint"/>
                    </mxGeometry>
                </mxCell>
                <mxCell id="307" value="" style="ellipse;whiteSpace=wrap;html=1;align=center;aspect=fixed;resizable=0;points=[];outlineConnect=0;sketch=0;fontSize=10;" parent="1" vertex="1">
                    <mxGeometry x="770" y="320" width="10" height="10" as="geometry"/>
                </mxCell>
                <mxCell id="308" value="" style="rounded=0;orthogonalLoop=1;jettySize=auto;html=1;endArrow=none;endFill=0;sketch=0;sourcePerimeterSpacing=0;targetPerimeterSpacing=0;fontSize=10;exitX=0.397;exitY=-0.013;exitDx=0;exitDy=0;exitPerimeter=0;" parent="1" source="300" target="311" edge="1">
                    <mxGeometry relative="1" as="geometry">
                        <mxPoint x="760" y="370" as="sourcePoint"/>
                    </mxGeometry>
                </mxCell>
                <mxCell id="309" value="select" style="edgeLabel;html=1;align=center;verticalAlign=middle;resizable=0;points=[];fontSize=10;" parent="308" vertex="1" connectable="0">
                    <mxGeometry x="0.3174" y="1" relative="1" as="geometry">
                        <mxPoint x="1" y="18" as="offset"/>
                    </mxGeometry>
                </mxCell>
                <mxCell id="310" value="" style="rounded=0;orthogonalLoop=1;jettySize=auto;html=1;endArrow=halfCircle;endFill=0;entryX=0.5;entryY=0.5;endSize=6;strokeWidth=1;sketch=0;fontSize=10;exitX=0.772;exitY=0.987;exitDx=0;exitDy=0;exitPerimeter=0;" parent="1" source="272" target="311" edge="1">
                    <mxGeometry relative="1" as="geometry">
                        <mxPoint x="765" y="369.9999999999999" as="sourcePoint"/>
                    </mxGeometry>
                </mxCell>
                <mxCell id="311" value="" style="ellipse;whiteSpace=wrap;html=1;align=center;aspect=fixed;resizable=0;points=[];outlineConnect=0;sketch=0;fontSize=10;" parent="1" vertex="1">
                    <mxGeometry x="750" y="310" width="10" height="10" as="geometry"/>
                </mxCell>
                <mxCell id="312" value="" style="rounded=0;orthogonalLoop=1;jettySize=auto;html=1;endArrow=none;endFill=0;sketch=0;sourcePerimeterSpacing=0;targetPerimeterSpacing=0;fontSize=10;exitX=0.689;exitY=1.008;exitDx=0;exitDy=0;exitPerimeter=0;" parent="1" source="272" target="315" edge="1">
                    <mxGeometry relative="1" as="geometry">
                        <mxPoint x="700" y="335" as="sourcePoint"/>
                    </mxGeometry>
                </mxCell>
                <mxCell id="313" value="update" style="edgeLabel;html=1;align=center;verticalAlign=middle;resizable=0;points=[];fontSize=10;" parent="312" vertex="1" connectable="0">
                    <mxGeometry x="-0.0833" relative="1" as="geometry">
                        <mxPoint x="-5" y="-17" as="offset"/>
                    </mxGeometry>
                </mxCell>
                <mxCell id="314" value="" style="rounded=0;orthogonalLoop=1;jettySize=auto;html=1;endArrow=halfCircle;endFill=0;entryX=0.5;entryY=0.5;endSize=6;strokeWidth=1;sketch=0;fontSize=10;exitX=0.164;exitY=-0.023;exitDx=0;exitDy=0;exitPerimeter=0;" parent="1" source="300" target="315" edge="1">
                    <mxGeometry relative="1" as="geometry">
                        <mxPoint x="740" y="335" as="sourcePoint"/>
                    </mxGeometry>
                </mxCell>
                <mxCell id="315" value="" style="ellipse;whiteSpace=wrap;html=1;align=center;aspect=fixed;resizable=0;points=[];outlineConnect=0;sketch=0;fontSize=10;" parent="1" vertex="1">
                    <mxGeometry x="730" y="330" width="10" height="10" as="geometry"/>
                </mxCell>
                <mxCell id="318" value="" style="rounded=0;orthogonalLoop=1;jettySize=auto;html=1;endArrow=halfCircle;endFill=0;entryX=0.5;entryY=0.5;endSize=6;strokeWidth=1;sketch=0;fontSize=10;" parent="1" target="319" edge="1">
                    <mxGeometry relative="1" as="geometry">
                        <mxPoint x="685" y="290" as="sourcePoint"/>
                    </mxGeometry>
                </mxCell>
                <mxCell id="319" value="" style="ellipse;whiteSpace=wrap;html=1;align=center;aspect=fixed;resizable=0;points=[];outlineConnect=0;sketch=0;fontSize=10;" parent="1" vertex="1">
                    <mxGeometry x="680" y="270" width="10" height="10" as="geometry"/>
                </mxCell>
                <mxCell id="325" value="" style="rounded=0;orthogonalLoop=1;jettySize=auto;html=1;endArrow=none;endFill=0;sketch=0;sourcePerimeterSpacing=0;targetPerimeterSpacing=0;exitX=1;exitY=0.375;exitDx=0;exitDy=0;exitPerimeter=0;align=center;verticalAlign=middle;" parent="1" source="249" target="329" edge="1">
                    <mxGeometry relative="1" as="geometry">
                        <mxPoint x="220" y="114" as="sourcePoint"/>
                        <mxPoint x="340.0001599923204" y="114.96000127993858" as="targetPoint"/>
                    </mxGeometry>
                </mxCell>
                <mxCell id="326" value="protocol" style="edgeLabel;html=1;align=center;verticalAlign=middle;resizable=0;points=[];" parent="325" vertex="1" connectable="0">
                    <mxGeometry x="-0.2754" y="1" relative="1" as="geometry">
                        <mxPoint as="offset"/>
                    </mxGeometry>
                </mxCell>
                <mxCell id="328" value="" style="rounded=0;orthogonalLoop=1;jettySize=auto;html=1;endArrow=halfCircle;endFill=0;entryX=0.5;entryY=0.5;endSize=6;strokeWidth=1;sketch=0;labelBackgroundColor=default;labelBorderColor=default;fontSize=10;fontColor=#18141d;exitX=0.5;exitY=0;exitDx=0;exitDy=0;" parent="1" source="250" target="329" edge="1">
                    <mxGeometry relative="1" as="geometry">
                        <mxPoint x="310" y="125" as="sourcePoint"/>
                    </mxGeometry>
                </mxCell>
                <mxCell id="329" value="" style="ellipse;whiteSpace=wrap;html=1;align=center;aspect=fixed;resizable=0;points=[];outlineConnect=0;sketch=0;labelBackgroundColor=none;labelBorderColor=none;fontSize=10;fontColor=#18141d;" parent="1" vertex="1">
                    <mxGeometry x="310" y="110" width="10" height="10" as="geometry"/>
                </mxCell>
                <mxCell id="330" value="SMTP-Server" style="shape=module;align=left;spacingLeft=20;align=center;verticalAlign=top;fontSize=10;" parent="1" vertex="1">
                    <mxGeometry x="630" y="290" width="90" height="50" as="geometry"/>
                </mxCell>
                <mxCell id="331" value="sendEmail" style="rounded=0;orthogonalLoop=1;jettySize=auto;html=1;endArrow=none;endFill=0;sketch=0;sourcePerimeterSpacing=0;targetPerimeterSpacing=0;fontSize=10;exitX=0.439;exitY=1;exitDx=0;exitDy=0;exitPerimeter=0;" parent="1" source="272" target="319" edge="1">
                    <mxGeometry relative="1" as="geometry">
                        <mxPoint x="710" y="250" as="sourcePoint"/>
                        <mxPoint x="745" y="150" as="targetPoint"/>
                        <mxPoint as="offset"/>
                    </mxGeometry>
                </mxCell>
                <mxCell id="336" value="" style="rounded=0;orthogonalLoop=1;jettySize=auto;html=1;endArrow=none;endFill=0;sketch=0;sourcePerimeterSpacing=0;targetPerimeterSpacing=0;labelBackgroundColor=default;labelBorderColor=default;fontSize=10;fontColor=#18141d;exitX=0;exitY=0;exitDx=0;exitDy=35;exitPerimeter=0;" parent="1" source="272" target="338" edge="1">
                    <mxGeometry relative="1" as="geometry">
                        <mxPoint x="470" y="195" as="sourcePoint"/>
                    </mxGeometry>
                </mxCell>
                <mxCell id="338" value="" style="ellipse;whiteSpace=wrap;html=1;align=center;aspect=fixed;resizable=0;points=[];outlineConnect=0;sketch=0;labelBackgroundColor=none;labelBorderColor=none;fontSize=10;fontColor=#18141d;" parent="1" vertex="1">
                    <mxGeometry x="485" y="190" width="10" height="10" as="geometry"/>
                </mxCell>
                <mxCell id="342" value="" style="rounded=0;orthogonalLoop=1;jettySize=auto;html=1;endArrow=halfCircle;endFill=0;entryX=0.5;entryY=0.5;endSize=6;strokeWidth=1;sketch=0;labelBackgroundColor=#1a151e;labelBorderColor=default;fontSize=10;fontColor=#FFFFFF;exitX=0.686;exitY=-0.007;exitDx=0;exitDy=0;exitPerimeter=0;" parent="1" source="272" target="343" edge="1">
                    <mxGeometry relative="1" as="geometry">
                        <mxPoint x="760" y="145" as="sourcePoint"/>
                    </mxGeometry>
                </mxCell>
                <mxCell id="343" value="" style="ellipse;whiteSpace=wrap;html=1;align=center;aspect=fixed;resizable=0;points=[];outlineConnect=0;sketch=0;labelBackgroundColor=none;labelBorderColor=none;fontSize=10;fontColor=#FFFFFF;" parent="1" vertex="1">
                    <mxGeometry x="730" y="140" width="10" height="10" as="geometry"/>
                </mxCell>
                <mxCell id="350" value="" style="rounded=0;orthogonalLoop=1;jettySize=auto;html=1;endArrow=halfCircle;endFill=0;entryX=0.5;entryY=0.5;endSize=6;strokeWidth=1;sketch=0;labelBackgroundColor=#FFFFFF;labelBorderColor=none;fontSize=10;fontColor=#FFFFFF;exitX=0.831;exitY=-0.013;exitDx=0;exitDy=0;exitPerimeter=0;" parent="1" source="300" target="351" edge="1">
                    <mxGeometry relative="1" as="geometry">
                        <mxPoint x="820" y="345" as="sourcePoint"/>
                    </mxGeometry>
                </mxCell>
                <mxCell id="351" value="" style="ellipse;whiteSpace=wrap;html=1;align=center;aspect=fixed;resizable=0;points=[];outlineConnect=0;sketch=0;labelBackgroundColor=none;labelBorderColor=none;fontSize=10;fontColor=#FFFFFF;" parent="1" vertex="1">
                    <mxGeometry x="790" y="340" width="10" height="10" as="geometry"/>
                </mxCell>
                <mxCell id="353" value="cfg" style="rounded=0;orthogonalLoop=1;jettySize=auto;html=1;endArrow=none;endFill=0;sketch=0;sourcePerimeterSpacing=0;targetPerimeterSpacing=0;fontSize=10;exitX=0.25;exitY=1;exitDx=0;exitDy=0;" parent="1" target="343" edge="1">
                    <mxGeometry relative="1" as="geometry">
                        <mxPoint x="735" y="120" as="sourcePoint"/>
                        <mxPoint x="730" y="145" as="targetPoint"/>
                        <mxPoint as="offset"/>
                    </mxGeometry>
                </mxCell>
                <mxCell id="354" value="cfg" style="rounded=0;orthogonalLoop=1;jettySize=auto;html=1;endArrow=halfCircle;endFill=0;entryX=0.5;entryY=0.5;endSize=6;strokeWidth=1;sketch=0;exitX=0.998;exitY=0.389;exitDx=0;exitDy=0;exitPerimeter=0;" parent="1" source="250" edge="1">
                    <mxGeometry relative="1" as="geometry">
                        <mxPoint x="412.5" y="194.8" as="sourcePoint"/>
                        <mxPoint x="487.5" y="194.8" as="targetPoint"/>
                    </mxGeometry>
                </mxCell>
                <mxCell id="355" value="flutter" style="shape=module;align=left;spacingLeft=20;align=center;verticalAlign=top;" vertex="1" parent="1">
                    <mxGeometry x="710" y="70" width="100" height="50" as="geometry"/>
                </mxCell>
                <mxCell id="356" value="" style="rounded=0;orthogonalLoop=1;jettySize=auto;html=1;endArrow=none;endFill=0;sketch=0;sourcePerimeterSpacing=0;targetPerimeterSpacing=0;fontSize=10;exitX=0.872;exitY=1.014;exitDx=0;exitDy=0;exitPerimeter=0;" edge="1" parent="1" target="351">
                    <mxGeometry relative="1" as="geometry">
                        <mxPoint x="794.41" y="250" as="sourcePoint"/>
                        <mxPoint x="794" y="320" as="targetPoint"/>
                    </mxGeometry>
                </mxCell>
                <mxCell id="357" value="insert" style="edgeLabel;html=1;align=center;verticalAlign=middle;resizable=0;points=[];fontSize=10;" vertex="1" connectable="0" parent="356">
                    <mxGeometry x="0.4451" y="1" relative="1" as="geometry">
                        <mxPoint as="offset"/>
                    </mxGeometry>
                </mxCell>
                <mxCell id="359" value="Login" style="endArrow=block;startArrow=none;endFill=0;startFill=0;endSize=8;html=1;verticalAlign=bottom;dashed=1;labelBackgroundColor=none;entryX=0.75;entryY=1;entryDx=0;entryDy=0;" edge="1" parent="1" target="248">
                    <mxGeometry width="160" relative="1" as="geometry">
                        <mxPoint x="185" y="360" as="sourcePoint"/>
                        <mxPoint x="190" y="290" as="targetPoint"/>
                    </mxGeometry>
                </mxCell>
                <mxCell id="360" value="Öffnen" style="endArrow=block;startArrow=none;endFill=0;startFill=0;endSize=8;html=1;verticalAlign=bottom;dashed=1;labelBackgroundColor=none;entryX=0.75;entryY=1;entryDx=0;entryDy=0;" edge="1" parent="1">
                    <mxGeometry width="160" relative="1" as="geometry">
                        <mxPoint x="190" y="240" as="sourcePoint"/>
                        <mxPoint x="190" y="170" as="targetPoint"/>
                    </mxGeometry>
                </mxCell>
            </root>
        </mxGraphModel>
    </diagram>
</mxfile>